<svg width="63" height="63" viewBox="0 0 63 63" fill="none" xmlns="http://www.w3.org/2000/svg">
<circle cx="31.5" cy="31.5" r="29.5" fill="#FF4EC3" stroke="#860863" stroke-width="4"/>
<path d="M18 29C16.8954 29 16 29.8954 16 31C16 32.1046 16.8954 33 18 33L18 29ZM46.4142 32.4142C47.1953 31.6332 47.1953 30.3668 46.4142 29.5858L33.6863 16.8579C32.9052 16.0768 31.6389 16.0768 30.8579 16.8579C30.0768 17.6389 30.0768 18.9052 30.8579 19.6863L42.1716 31L30.8579 42.3137C30.0768 43.0948 30.0768 44.3611 30.8579 45.1421C31.6389 45.9232 32.9052 45.9232 33.6863 45.1421L46.4142 32.4142ZM18 33L45 33L45 29L18 29L18 33Z" fill="white"/>
</svg>
